<svg width="281" height="65" viewBox="0 0 281 65" fill="none" xmlns="http://www.w3.org/2000/svg">
<path d="M90.9468 21.582V44.1H87.2532V28.6776L80.3844 44.1H77.8248L70.9236 28.6776V44.1H67.23V21.582H71.2152L79.1208 39.24L86.994 21.582H90.9468ZM97.6807 23.8824C97.0111 23.8824 96.4495 23.6556 95.9959 23.202C95.5423 22.7484 95.3155 22.1868 95.3155 21.5172C95.3155 20.8476 95.5423 20.286 95.9959 19.8324C96.4495 19.3788 97.0111 19.152 97.6807 19.152C98.3287 19.152 98.8795 19.3788 99.3331 19.8324C99.7867 20.286 100.014 20.8476 100.014 21.5172C100.014 22.1868 99.7867 22.7484 99.3331 23.202C98.8795 23.6556 98.3287 23.8824 97.6807 23.8824ZM99.4951 26.2476V44.1H95.8015V26.2476H99.4951ZM103.113 35.0928C103.113 33.3 103.48 31.7124 104.215 30.33C104.971 28.9476 105.986 27.8784 107.26 27.1224C108.556 26.3448 109.993 25.956 111.57 25.956C112.736 25.956 113.881 26.2152 115.004 26.7336C116.149 27.2304 117.056 27.9 117.726 28.7424V20.124H121.452V44.1H117.726V41.4108C117.121 42.2748 116.278 42.9876 115.198 43.5492C114.14 44.1108 112.92 44.3916 111.537 44.3916C109.982 44.3916 108.556 44.0028 107.26 43.2252C105.986 42.426 104.971 41.3244 104.215 39.9204C103.48 38.4948 103.113 36.8856 103.113 35.0928ZM117.726 35.1576C117.726 33.9264 117.466 32.8572 116.948 31.95C116.451 31.0428 115.792 30.3516 114.972 29.8764C114.151 29.4012 113.265 29.1636 112.315 29.1636C111.364 29.1636 110.479 29.4012 109.658 29.8764C108.837 30.33 108.168 31.0104 107.649 31.9176C107.152 32.8032 106.904 33.8616 106.904 35.0928C106.904 36.324 107.152 37.404 107.649 38.3328C108.168 39.2616 108.837 39.9744 109.658 40.4712C110.5 40.9464 111.386 41.184 112.315 41.184C113.265 41.184 114.151 40.9464 114.972 40.4712C115.792 39.996 116.451 39.3048 116.948 38.3976C117.466 37.4688 117.726 36.3888 117.726 35.1576ZM135.31 25.956C136.714 25.956 137.967 26.2476 139.069 26.8308C140.192 27.414 141.067 28.278 141.693 29.4228C142.319 30.5676 142.633 31.95 142.633 33.57V44.1H138.971V34.1208C138.971 32.5224 138.572 31.302 137.773 30.4596C136.973 29.5956 135.883 29.1636 134.5 29.1636C133.118 29.1636 132.016 29.5956 131.195 30.4596C130.396 31.302 129.997 32.5224 129.997 34.1208V44.1H126.303V26.2476H129.997V28.2888C130.601 27.5544 131.368 26.982 132.297 26.5716C133.247 26.1612 134.252 25.956 135.31 25.956ZM149.223 23.8824C148.554 23.8824 147.992 23.6556 147.539 23.202C147.085 22.7484 146.858 22.1868 146.858 21.5172C146.858 20.8476 147.085 20.286 147.539 19.8324C147.992 19.3788 148.554 19.152 149.223 19.152C149.871 19.152 150.422 19.3788 150.876 19.8324C151.329 20.286 151.556 20.8476 151.556 21.5172C151.556 22.1868 151.329 22.7484 150.876 23.202C150.422 23.6556 149.871 23.8824 149.223 23.8824ZM151.038 26.2476V44.1H147.344V26.2476H151.038ZM163.08 25.956C164.462 25.956 165.683 26.2368 166.741 26.7984C167.821 27.3384 168.663 28.0188 169.268 28.8396V26.2476H172.994V44.3916C172.994 46.0332 172.649 47.4912 171.957 48.7656C171.266 50.0616 170.262 51.0768 168.944 51.8112C167.648 52.5456 166.093 52.9128 164.279 52.9128C161.859 52.9128 159.851 52.3404 158.252 51.1956C156.654 50.0724 155.747 48.5388 155.531 46.5948H159.192C159.473 47.5236 160.067 48.2688 160.974 48.8304C161.903 49.4136 163.004 49.7052 164.279 49.7052C165.769 49.7052 166.968 49.2516 167.875 48.3444C168.804 47.4372 169.268 46.1196 169.268 44.3916V41.4108C168.642 42.2532 167.789 42.966 166.709 43.5492C165.65 44.1108 164.441 44.3916 163.08 44.3916C161.525 44.3916 160.099 44.0028 158.803 43.2252C157.529 42.426 156.513 41.3244 155.757 39.9204C155.023 38.4948 154.656 36.8856 154.656 35.0928C154.656 33.3 155.023 31.7124 155.757 30.33C156.513 28.9476 157.529 27.8784 158.803 27.1224C160.099 26.3448 161.525 25.956 163.08 25.956ZM169.268 35.1576C169.268 33.9264 169.009 32.8572 168.491 31.95C167.994 31.0428 167.335 30.3516 166.514 29.8764C165.693 29.4012 164.808 29.1636 163.857 29.1636C162.907 29.1636 162.021 29.4012 161.201 29.8764C160.38 30.33 159.71 31.0104 159.192 31.9176C158.695 32.8032 158.447 33.8616 158.447 35.0928C158.447 36.324 158.695 37.404 159.192 38.3328C159.71 39.2616 160.38 39.9744 161.201 40.4712C162.043 40.9464 162.929 41.184 163.857 41.184C164.808 41.184 165.693 40.9464 166.514 40.4712C167.335 39.996 167.994 39.3048 168.491 38.3976C169.009 37.4688 169.268 36.3888 169.268 35.1576ZM187.08 25.956C188.44 25.956 189.65 26.2476 190.708 26.8308C191.788 27.414 192.631 28.278 193.236 29.4228C193.862 30.5676 194.175 31.95 194.175 33.57V44.1H190.514V34.1208C190.514 32.5224 190.114 31.302 189.315 30.4596C188.516 29.5956 187.425 29.1636 186.043 29.1636C184.66 29.1636 183.559 29.5956 182.738 30.4596C181.939 31.302 181.539 32.5224 181.539 34.1208V44.1H177.846V20.124H181.539V28.3212C182.166 27.5652 182.954 26.982 183.904 26.5716C184.876 26.1612 185.935 25.956 187.08 25.956ZM203.196 29.2608V39.1428C203.196 39.8124 203.347 40.2984 203.649 40.6008C203.973 40.8816 204.513 41.022 205.269 41.022H207.537V44.1H204.621C202.958 44.1 201.684 43.7112 200.798 42.9336C199.913 42.156 199.47 40.8924 199.47 39.1428V29.2608H197.364V26.2476H199.47V21.8088H203.196V26.2476H207.537V29.2608H203.196ZM222.995 32.5332C224.204 32.7492 225.23 33.3864 226.073 34.4448C226.915 35.5032 227.336 36.702 227.336 38.0412C227.336 39.186 227.034 40.2228 226.429 41.1516C225.846 42.0588 224.993 42.7824 223.869 43.3224C222.746 43.8408 221.439 44.1 219.949 44.1H210.942V21.582H219.528C221.061 21.582 222.379 21.8412 223.481 22.3596C224.582 22.878 225.414 23.58 225.975 24.4656C226.537 25.3296 226.818 26.3016 226.818 27.3816C226.818 28.6776 226.472 29.7576 225.781 30.6216C225.09 31.4856 224.161 32.1228 222.995 32.5332ZM214.635 31.0428H219.204C220.413 31.0428 221.353 30.7728 222.023 30.2328C222.714 29.6712 223.059 28.872 223.059 27.8352C223.059 26.82 222.714 26.0316 222.023 25.47C221.353 24.8868 220.413 24.5952 219.204 24.5952H214.635V31.0428ZM219.625 41.0868C220.878 41.0868 221.861 40.7844 222.573 40.1796C223.286 39.5748 223.643 38.7324 223.643 37.6524C223.643 36.5508 223.265 35.676 222.509 35.028C221.753 34.38 220.748 34.056 219.495 34.056H214.635V41.0868H219.625ZM235.044 20.124V44.1H231.35V20.124H235.044ZM247.637 44.3916C245.952 44.3916 244.429 44.0136 243.068 43.2576C241.707 42.48 240.638 41.4 239.861 40.0176C239.083 38.6136 238.694 36.9936 238.694 35.1576C238.694 33.3432 239.094 31.734 239.893 30.33C240.692 28.926 241.783 27.846 243.165 27.09C244.548 26.334 246.092 25.956 247.799 25.956C249.505 25.956 251.049 26.334 252.432 27.09C253.814 27.846 254.905 28.926 255.704 30.33C256.503 31.734 256.903 33.3432 256.903 35.1576C256.903 36.972 256.493 38.5812 255.672 39.9852C254.851 41.3892 253.728 42.48 252.302 43.2576C250.898 44.0136 249.343 44.3916 247.637 44.3916ZM247.637 41.184C248.587 41.184 249.473 40.9572 250.293 40.5036C251.136 40.05 251.816 39.3696 252.335 38.4624C252.853 37.5552 253.112 36.4536 253.112 35.1576C253.112 33.8616 252.864 32.7708 252.367 31.8852C251.87 30.978 251.211 30.2976 250.391 29.844C249.57 29.3904 248.684 29.1636 247.734 29.1636C246.783 29.1636 245.898 29.3904 245.077 29.844C244.278 30.2976 243.641 30.978 243.165 31.8852C242.69 32.7708 242.453 33.8616 242.453 35.1576C242.453 37.08 242.939 38.5704 243.911 39.6288C244.904 40.6656 246.146 41.184 247.637 41.184ZM267.747 25.956C269.129 25.956 270.35 26.2368 271.408 26.7984C272.488 27.3384 273.331 28.0188 273.935 28.8396V26.2476H277.661V44.3916C277.661 46.0332 277.316 47.4912 276.625 48.7656C275.933 50.0616 274.929 51.0768 273.611 51.8112C272.315 52.5456 270.76 52.9128 268.946 52.9128C266.527 52.9128 264.518 52.3404 262.919 51.1956C261.321 50.0724 260.414 48.5388 260.198 46.5948H263.859C264.14 47.5236 264.734 48.2688 265.641 48.8304C266.57 49.4136 267.671 49.7052 268.946 49.7052C270.436 49.7052 271.635 49.2516 272.542 48.3444C273.471 47.4372 273.935 46.1196 273.935 44.3916V41.4108C273.309 42.2532 272.456 42.966 271.376 43.5492C270.317 44.1108 269.108 44.3916 267.747 44.3916C266.192 44.3916 264.766 44.0028 263.47 43.2252C262.196 42.426 261.181 41.3244 260.425 39.9204C259.69 38.4948 259.323 36.8856 259.323 35.0928C259.323 33.3 259.69 31.7124 260.425 30.33C261.181 28.9476 262.196 27.8784 263.47 27.1224C264.766 26.3448 266.192 25.956 267.747 25.956ZM273.935 35.1576C273.935 33.9264 273.676 32.8572 273.158 31.95C272.661 31.0428 272.002 30.3516 271.181 29.8764C270.361 29.4012 269.475 29.1636 268.525 29.1636C267.574 29.1636 266.689 29.4012 265.868 29.8764C265.047 30.33 264.377 31.0104 263.859 31.9176C263.362 32.8032 263.114 33.8616 263.114 35.0928C263.114 36.324 263.362 37.404 263.859 38.3328C264.377 39.2616 265.047 39.9744 265.868 40.4712C266.71 40.9464 267.596 41.184 268.525 41.184C269.475 41.184 270.361 40.9464 271.181 40.4712C272.002 39.996 272.661 39.3048 273.158 38.3976C273.676 37.4688 273.935 36.3888 273.935 35.1576Z" fill="white"/>
<path d="M48.6001 48.6C57.5471 39.653 57.5471 25.147 48.6001 16.2C39.653 7.25298 25.1471 7.25298 16.2001 16.2C7.25305 25.147 7.25305 39.653 16.2001 48.6C25.1471 57.547 39.653 57.547 48.6001 48.6Z" fill="#F0F3F7"/>
<g opacity="0.5">
<path d="M25.8207 12.2657C23.1397 12.2657 20.5188 13.0607 18.2897 14.5502C16.0605 16.0397 14.323 18.1568 13.2971 20.6337C12.2711 23.1106 12.0026 25.8362 12.5257 28.4657C13.0487 31.0952 14.3397 33.5106 16.2355 35.4063C18.1313 37.3021 20.5466 38.5931 23.1761 39.1162C25.8056 39.6392 28.5312 39.3708 31.0081 38.3448C33.4851 37.3188 35.6021 35.5814 37.0916 33.3522C38.5811 31.123 39.3762 28.5022 39.3762 25.8212C39.3759 22.2261 37.9476 18.7784 35.4055 16.2363C32.8634 13.6942 29.4157 12.266 25.8207 12.2657Z" fill="white"/>
</g>
<g opacity="0.15">
<path d="M16.1993 48.6009C25.1471 57.5487 39.6527 57.5487 48.606 48.6009C57.5592 39.6531 57.5526 25.1476 48.606 16.2009C48.606 16.2009 57.6079 34.008 45.8188 45.796C33.5452 58.063 16.1993 48.6009 16.1993 48.6009Z" fill="#3F456B"/>
</g>
<g opacity="0.15">
<path d="M34.6678 27.6649C38.4 27.6649 41.4256 24.6393 41.4256 20.9071C41.4256 17.1748 38.4 14.1493 34.6678 14.1493C30.9356 14.1493 27.91 17.1748 27.91 20.9071C27.91 24.6393 30.9356 27.6649 34.6678 27.6649Z" fill="#3F456B"/>
</g>
<g opacity="0.15">
<path d="M24.1716 47.12C26.8575 47.12 29.0348 44.9426 29.0348 42.2568C29.0348 39.5709 26.8575 37.3936 24.1716 37.3936C21.4857 37.3936 19.3084 39.5709 19.3084 42.2568C19.3084 44.9426 21.4857 47.12 24.1716 47.12Z" fill="#3F456B"/>
</g>
<g opacity="0.15">
<path d="M32.761 26.6662C30.352 25.6542 28.1157 23.6456 28.1157 20.8695C28.1157 19.0954 28.8204 17.394 30.0749 16.1395C31.3294 14.885 33.0308 14.1802 34.8049 14.1802C37.5822 14.1802 40.3417 15.8393 40.6226 18.9262C39.7179 17.0537 37.883 16.1479 35.8479 16.149C32.3949 16.149 29.6364 18.5822 29.9495 21.9224C30.1419 23.9487 31.2557 25.5259 32.761 26.6662Z" fill="#3F456B"/>
</g>
<g opacity="0.15">
<path d="M25.6813 46.5492C23.9117 47.0779 21.7936 46.9839 20.5471 45.4697C19.7535 44.5008 19.376 43.2569 19.4973 42.0103C19.6186 40.7637 20.2287 39.6159 21.1941 38.8181C23.1175 37.2155 25.6183 37.5804 27.1534 39.141C25.7598 38.3082 24.0322 38.4332 22.6464 39.4231C20.6621 40.8421 20.3502 43.5441 22.0192 45.222C23.0324 46.2417 24.3485 46.6023 25.6813 46.5492Z" fill="#3F456B"/>
</g>
<g opacity="0.15">
<path d="M48.6435 32.3467C48.4378 33.9538 46.9955 35.0941 45.4228 34.8906C43.85 34.6871 42.7407 33.2238 42.9464 31.6168C43.1521 30.0097 44.5944 28.8694 46.1671 29.0729C47.7399 29.2764 48.8481 30.7397 48.6435 32.3467Z" fill="#3F456B"/>
</g>
<g opacity="0.15">
<path d="M22.9041 28.7544C22.6984 30.3614 21.2572 31.5017 19.6844 31.2982C18.1117 31.0947 17.0023 29.6314 17.208 28.0244C17.4138 26.4173 18.8549 25.277 20.4277 25.4805C22.0005 25.684 23.1065 27.1473 22.9041 28.7544Z" fill="#3F456B"/>
</g>
<path d="M10.7588 7.9743C10.2045 7.9743 9.66261 8.13868 9.20171 8.44664C8.74081 8.7546 8.38159 9.19232 8.16946 9.70444C7.95733 10.2166 7.90183 10.7801 8.00997 11.3238C8.11811 11.8674 8.38504 12.3668 8.777 12.7588C9.16896 13.1507 9.66835 13.4177 10.212 13.5258C10.7557 13.6339 11.3192 13.5784 11.8313 13.3663C12.3435 13.1542 12.7812 12.795 13.0891 12.3341C13.3971 11.8732 13.5615 11.3313 13.5615 10.777C13.5612 10.0338 13.2658 9.32105 12.7403 8.79551C12.2147 8.26997 11.502 7.9746 10.7588 7.9743Z" fill="#F0F3F7"/>
<g opacity="0.7">
<path d="M11.1253 11.1446C11.7728 10.4972 11.7728 9.44742 11.1253 8.79995C10.4779 8.15249 9.42814 8.15249 8.78067 8.79995C8.13321 9.44742 8.13321 10.4972 8.78067 11.1446C9.42814 11.7921 10.4779 11.7921 11.1253 11.1446Z" fill="white"/>
</g>
<g opacity="0.15">
<path d="M8.2702 12.2513C9.18931 13.792 11.6336 14.0022 12.7286 12.9072C13.8236 11.8122 13.9452 9.3679 12.2331 8.28842C12.2331 8.28842 13.4033 10.3434 11.961 11.7857C10.4601 13.2866 8.2702 12.2513 8.2702 12.2513Z" fill="#3F456B"/>
</g>
<path d="M56.9908 48.4107C56.6228 48.4107 56.2631 48.5199 55.9573 48.7244C55.6514 48.9289 55.4131 49.2196 55.2725 49.5597C55.132 49.8997 55.0955 50.2739 55.1677 50.6347C55.2399 50.9955 55.4175 51.3267 55.678 51.5865C55.9386 51.8463 56.2704 52.023 56.6314 52.0941C56.9925 52.1652 57.3665 52.1276 57.7061 51.986C58.0457 51.8445 58.3357 51.6053 58.5393 51.2988C58.743 50.9923 58.8511 50.6323 58.85 50.2644C58.8482 49.7723 58.6516 49.301 58.3032 48.9536C57.9547 48.6062 57.4828 48.411 56.9908 48.4107Z" fill="#F0F3F7"/>
<g opacity="0.7">
<path d="M57.2345 50.5097C57.6643 50.0799 57.6643 49.3831 57.2345 48.9534C56.8048 48.5236 56.108 48.5236 55.6782 48.9534C55.2484 49.3831 55.2484 50.0799 55.6782 50.5097C56.108 50.9395 56.8048 50.9395 57.2345 50.5097Z" fill="white"/>
</g>
<g opacity="0.15">
<path d="M55.3394 51.2432C55.9499 52.2652 57.5714 52.4046 58.298 51.6779C59.0247 50.9512 59.1043 49.3298 57.9662 48.6142C57.9662 48.6142 58.7405 49.9779 57.7848 50.9369C56.7927 51.9301 55.3394 51.2432 55.3394 51.2432Z" fill="#3F456B"/>
</g>
<g opacity="0.5">
<path d="M51.8819 53.9408C51.7353 53.9408 51.5946 53.8825 51.4909 53.7788C51.3872 53.6751 51.3289 53.5345 51.3289 53.3878V53.2772C51.3289 53.1305 51.3872 52.9899 51.4909 52.8862C51.5946 52.7824 51.7353 52.7242 51.8819 52.7242C52.0286 52.7242 52.1693 52.7824 52.273 52.8862C52.3767 52.9899 52.4349 53.1305 52.4349 53.2772V53.3878C52.4349 53.5345 52.3767 53.6751 52.273 53.7788C52.1693 53.8825 52.0286 53.9408 51.8819 53.9408Z" fill="#3F456B"/>
<path d="M55.9743 46.5304C55.8276 46.5304 55.687 46.4721 55.5832 46.3684C55.4795 46.2647 55.4213 46.1241 55.4213 45.9774V45.8668C55.4213 45.7201 55.4795 45.5795 55.5832 45.4758C55.687 45.372 55.8276 45.3138 55.9743 45.3138C56.1209 45.3138 56.2616 45.372 56.3653 45.4758C56.469 45.5795 56.5273 45.7201 56.5273 45.8668V45.9774C56.5273 46.1241 56.469 46.2647 56.3653 46.3684C56.2616 46.4721 56.1209 46.5304 55.9743 46.5304Z" fill="#3F456B"/>
<path d="M9.2999 17.2207C9.15323 17.2207 9.01257 17.1624 8.90886 17.0587C8.80515 16.955 8.74689 16.8143 8.74689 16.6677V16.5571C8.74689 16.4104 8.80515 16.2697 8.90886 16.166C9.01257 16.0623 9.15323 16.0041 9.2999 16.0041C9.44657 16.0041 9.58723 16.0623 9.69094 16.166C9.79465 16.2697 9.85291 16.4104 9.85291 16.5571V16.6677C9.85291 16.8143 9.79465 16.955 9.69094 17.0587C9.58723 17.1624 9.44657 17.2207 9.2999 17.2207Z" fill="#3F456B"/>
</g>
<path d="M32.4413 56.0654C27.8006 56.0654 23.2642 54.6893 19.4057 52.111C15.5472 49.5328 12.5399 45.8682 10.764 41.5808C8.98822 37.2934 8.52366 32.5756 9.42911 28.0242C10.3346 23.4727 12.5694 19.292 15.8509 16.0107C19.1325 12.73 23.3132 10.496 27.8644 9.59108C32.4156 8.68619 37.1329 9.15104 41.42 10.9269C45.707 12.7027 49.3712 15.7097 51.9494 19.5679C54.5276 23.426 55.904 27.9619 55.9046 32.6022C55.9046 45.5405 45.3785 56.0654 32.4413 56.0654ZM32.4413 10.2438C20.1124 10.2438 10.0829 20.2744 10.0829 32.6022C10.0829 44.93 20.1124 54.9594 32.4413 54.9594C44.7702 54.9594 54.7985 44.93 54.7985 32.6022C54.7985 20.2744 44.7691 10.2438 32.4413 10.2438Z" fill="#3F456B"/>
<path d="M34.7684 28.2223C33.3418 28.2225 31.9472 27.7997 30.761 27.0073C29.5747 26.2148 28.6501 25.0884 28.1041 23.7705C27.5581 22.4525 27.4151 21.0023 27.6934 19.6031C27.9717 18.2039 28.6586 16.9187 29.6673 15.91C30.6761 14.9012 31.9613 14.2143 33.3605 13.936C34.7597 13.6578 36.2099 13.8007 37.5279 14.3467C38.8458 14.8927 39.9722 15.8173 40.7646 17.0036C41.5571 18.1898 41.9799 19.5844 41.9797 21.011C41.982 22.0111 41.7744 23.0006 41.3703 23.9154C41.3439 23.9857 41.3034 24.0499 41.2514 24.104C41.1994 24.1582 41.1369 24.2011 41.0678 24.2304C40.9986 24.2596 40.9242 24.2744 40.8491 24.2739C40.7741 24.2735 40.6999 24.2577 40.6311 24.2276C40.5623 24.1976 40.5003 24.1538 40.449 24.099C40.3977 24.0442 40.358 23.9795 40.3325 23.9089C40.307 23.8383 40.2961 23.7633 40.3005 23.6883C40.305 23.6134 40.3246 23.5401 40.3583 23.473C40.8875 22.2685 41.0136 20.9254 40.7178 19.6434C40.4219 18.3615 39.72 17.2094 38.7164 16.3586C37.7129 15.5079 36.4614 15.004 35.1484 14.922C33.8353 14.84 32.5309 15.1843 31.4293 15.9036C30.3277 16.6229 29.4879 17.6787 29.0348 18.9138C28.5818 20.149 28.5398 21.4975 28.9151 22.7584C29.2904 24.0194 30.0629 25.1254 31.1176 25.9118C32.1723 26.6983 33.4528 27.123 34.7684 27.1229C34.9151 27.1229 35.0557 27.1812 35.1594 27.2849C35.2631 27.3886 35.3214 27.5293 35.3214 27.6759C35.3214 27.8226 35.2631 27.9633 35.1594 28.067C35.0557 28.1707 34.9151 28.2289 34.7684 28.2289V28.2223Z" fill="#3F456B"/>
<path d="M24.1616 47.8853C23.1625 47.8857 22.1829 47.609 21.3317 47.0859C20.4805 46.5628 19.7911 45.8139 19.3401 44.9224C18.8891 44.0309 18.6943 43.0318 18.7772 42.0362C18.8601 41.0406 19.2176 40.0875 19.8099 39.2829C20.4021 38.4783 21.2059 37.8538 22.1319 37.4788C23.058 37.1037 24.0698 36.9929 25.0551 37.1586C26.0403 37.3243 26.9602 37.7601 27.7126 38.4174C28.465 39.0747 29.0203 39.9278 29.3167 40.8819C29.3385 40.9513 29.3464 41.0242 29.34 41.0966C29.3336 41.169 29.313 41.2395 29.2794 41.3039C29.2457 41.3684 29.1997 41.4256 29.144 41.4722C29.0883 41.5189 29.0239 41.5541 28.9545 41.5759C28.8852 41.5977 28.8122 41.6056 28.7398 41.5992C28.6674 41.5928 28.5969 41.5722 28.5325 41.5386C28.468 41.5049 28.4109 41.4589 28.3642 41.4032C28.3175 41.3474 28.2823 41.2831 28.2605 41.2137C28.0086 40.4025 27.5218 39.6843 26.8617 39.1497C26.2015 38.6152 25.3977 38.2884 24.5519 38.2107C23.7061 38.133 22.8562 38.3079 22.1097 38.7132C21.3633 39.1185 20.7538 39.736 20.3583 40.4877C19.9628 41.2394 19.7991 42.0915 19.8878 42.9363C19.9766 43.781 20.3139 44.5805 20.857 45.2335C21.4001 45.8866 22.1247 46.364 22.9391 46.6052C23.7535 46.8465 24.6212 46.8408 25.4324 46.589C25.5724 46.545 25.7243 46.5584 25.8544 46.6264C25.9846 46.6943 26.0824 46.8112 26.1264 46.9512C26.1704 47.0913 26.157 47.2431 26.089 47.3733C26.0211 47.5034 25.9043 47.6013 25.7642 47.6453C25.2451 47.8055 24.7048 47.8864 24.1616 47.8853Z" fill="#3F456B"/>
<path d="M34.8137 52.681C34.1656 52.6897 33.5264 52.5296 32.9589 52.2165C32.2776 51.8238 31.8529 51.2144 31.7909 50.543C31.7777 50.3964 31.8233 50.2505 31.9177 50.1374C32.0121 50.0244 32.1475 49.9535 32.2942 49.9403C32.4408 49.9271 32.5867 49.9727 32.6998 50.067C32.8128 50.1614 32.8838 50.2968 32.897 50.4435C32.9346 50.8638 33.3007 51.1348 33.5152 51.2575C34.0049 51.5161 34.5608 51.6221 35.1112 51.5617C36.2471 51.4588 37.153 50.7731 37.0888 50.0641C37.0756 49.9175 37.1212 49.7716 37.2156 49.6585C37.31 49.5455 37.4454 49.4745 37.592 49.4613C37.7387 49.4481 37.8846 49.4937 37.9977 49.5881C38.1107 49.6825 38.1816 49.8179 38.1948 49.9646C38.3165 51.3162 37.0081 52.5007 35.2152 52.6633C35.0747 52.6755 34.9431 52.681 34.8137 52.681Z" fill="#3F456B"/>
<path d="M14.965 38.4365C14.9279 38.4364 14.8909 38.4331 14.8544 38.4265C14.1388 38.2816 13.2484 37.6423 13.0936 36.3151C12.9387 34.9879 13.7373 34.0666 14.1476 33.8254C14.2107 33.7888 14.2804 33.7649 14.3528 33.7551C14.4251 33.7454 14.4987 33.75 14.5692 33.7687C14.6398 33.7874 14.706 33.8198 14.764 33.8641C14.822 33.9084 14.8708 33.9636 14.9074 34.0267C14.9441 34.0898 14.968 34.1596 14.9777 34.2319C14.9875 34.3042 14.9829 34.3778 14.9642 34.4483C14.9455 34.5189 14.9131 34.5851 14.8688 34.6431C14.8245 34.7012 14.7693 34.7499 14.7062 34.7866C14.5149 34.9634 14.3686 35.1833 14.2792 35.4279C14.1897 35.6726 14.1598 35.935 14.1918 36.1934C14.3025 37.1656 14.9948 37.3327 15.0767 37.3481C15.2111 37.3754 15.3305 37.4517 15.4119 37.5621C15.4932 37.6725 15.5306 37.8092 15.5168 37.9457C15.5031 38.0821 15.4391 38.2086 15.3373 38.3005C15.2355 38.3924 15.1032 38.4432 14.9661 38.4431L14.965 38.4365Z" fill="#3F456B"/>
<path d="M45.8995 44.962C45.7019 44.9622 45.5047 44.9455 45.3099 44.9122C45.2361 44.9026 45.165 44.8782 45.1008 44.8404C45.0367 44.8027 44.9808 44.7523 44.9365 44.6924C44.8923 44.6325 44.8606 44.5643 44.8434 44.4919C44.8262 44.4195 44.8237 44.3443 44.8362 44.2709C44.8488 44.1975 44.876 44.1274 44.9162 44.0648C44.9565 44.0021 45.009 43.9483 45.0706 43.9064C45.1322 43.8646 45.2016 43.8356 45.2746 43.8213C45.3477 43.8069 45.4229 43.8074 45.4958 43.8228C45.6755 43.8527 45.858 43.8628 46.0399 43.8527C46.4349 43.8301 46.8181 43.71 47.1553 43.5032C47.4925 43.2964 47.7733 43.0093 47.9725 42.6675C48.1718 42.3258 48.2833 41.94 48.2971 41.5447C48.311 41.1493 48.2267 40.7567 48.0518 40.4019C48.0196 40.3365 48.0006 40.2654 47.9959 40.1928C47.9912 40.1201 48.0009 40.0471 48.0243 39.9782C48.0478 39.9092 48.0846 39.8455 48.1327 39.7908C48.1808 39.7361 48.2392 39.6913 48.3045 39.6592C48.3699 39.627 48.4409 39.608 48.5136 39.6033C48.5863 39.5986 48.6592 39.6082 48.7282 39.6317C48.7972 39.6552 48.8608 39.692 48.9156 39.7401C48.9703 39.7882 49.015 39.8465 49.0472 39.9119C49.3024 40.4304 49.4253 41.004 49.405 41.5816C49.3847 42.1591 49.2218 42.7227 48.9309 43.222C48.6399 43.7213 48.23 44.1409 47.7375 44.4434C47.2451 44.7458 46.6854 44.9217 46.1085 44.9554C46.0355 44.962 45.9669 44.962 45.8995 44.962Z" fill="#3F456B"/>
<path d="M45.8276 35.6714C45.3019 35.6716 44.7834 35.5495 44.3131 35.3147C43.8428 35.0799 43.4336 34.7389 43.1178 34.3187C42.5627 33.5852 42.3187 32.6626 42.4387 31.7505C42.6832 29.8426 44.4019 28.4822 46.2822 28.7255C48.1624 28.9689 49.4808 30.7164 49.2375 32.6187C49.1243 33.5313 48.6562 34.3626 47.9346 34.9326C47.3366 35.411 46.5935 35.6716 45.8276 35.6714ZM45.8497 29.8094C45.2767 29.8175 44.7261 30.0336 44.3005 30.4173C43.8749 30.801 43.6032 31.3263 43.5359 31.8954C43.4528 32.5206 43.6197 33.1533 44.0004 33.6562C44.1831 33.9005 44.4131 34.1056 44.6767 34.2593C44.9402 34.4129 45.2319 34.5121 45.5346 34.5508C45.8372 34.5894 46.1445 34.5669 46.4382 34.4845C46.7319 34.4021 47.0061 34.2614 47.2444 34.071C47.7385 33.6796 48.0588 33.1094 48.1359 32.4838C48.3018 31.1809 47.4059 29.9897 46.1373 29.8293C46.0419 29.8167 45.9459 29.81 45.8497 29.8094Z" fill="#3F456B"/>
<path d="M20.1312 32.0436C19.4834 32.0431 18.8485 31.8629 18.297 31.5232C17.7455 31.1834 17.299 30.6974 17.0071 30.1191C16.7152 29.5408 16.5895 28.8929 16.6437 28.2474C16.698 27.6019 16.9302 26.9841 17.3145 26.4626C17.6988 25.9412 18.2202 25.5365 18.8207 25.2936C19.4212 25.0507 20.0773 24.9791 20.7161 25.0867C21.3549 25.1943 21.9513 25.477 22.4391 25.9032C22.9268 26.3295 23.2869 26.8826 23.4791 27.5012C23.5009 27.5705 23.5088 27.6435 23.5024 27.7159C23.496 27.7883 23.4754 27.8588 23.4418 27.9232C23.4081 27.9877 23.3621 28.0449 23.3064 28.0915C23.2507 28.1382 23.1863 28.1734 23.1169 28.1952C23.0476 28.217 22.9746 28.2249 22.9022 28.2185C22.8298 28.2121 22.7593 28.1915 22.6949 28.1578C22.6304 28.1242 22.5732 28.0782 22.5266 28.0225C22.4799 27.9667 22.4447 27.9023 22.4229 27.833C22.283 27.3802 22.012 26.979 21.6441 26.6802C21.2762 26.3815 20.8279 26.1986 20.356 26.1546C19.8842 26.1107 19.4098 26.2077 18.9931 26.4334C18.5763 26.6591 18.2359 27.0033 18.0148 27.4225C17.7938 27.8417 17.702 28.3171 17.7512 28.7885C17.8003 29.2598 17.9882 29.706 18.291 30.0706C18.5938 30.4352 18.998 30.7018 19.4523 30.8366C19.9067 30.9714 20.3908 30.9685 20.8435 30.8281C20.9128 30.8063 20.9858 30.7984 21.0582 30.8048C21.1306 30.8112 21.2011 30.8318 21.2655 30.8655C21.33 30.8991 21.3871 30.9451 21.4338 31.0009C21.4805 31.0566 21.5157 31.121 21.5375 31.1903C21.5593 31.2597 21.5672 31.3327 21.5608 31.4051C21.5544 31.4775 21.5338 31.5479 21.5001 31.6124C21.4665 31.6768 21.4205 31.734 21.3648 31.7807C21.309 31.8273 21.2446 31.8626 21.1753 31.8844C20.8372 31.9896 20.4852 32.0432 20.1312 32.0436Z" fill="#3F456B"/>
<path d="M40.0043 25.851C39.8979 25.8515 39.7937 25.8207 39.7046 25.7625C39.5816 25.6828 39.4953 25.5575 39.4646 25.4142C39.4339 25.2709 39.4613 25.1213 39.5409 24.9982L39.5962 24.9119C39.6356 24.8509 39.6867 24.7983 39.7465 24.757C39.8063 24.7158 39.8736 24.6867 39.9446 24.6714C40.0156 24.6562 40.0889 24.6551 40.1604 24.6681C40.2318 24.6812 40.3 24.7083 40.361 24.7477C40.422 24.7871 40.4747 24.8382 40.5159 24.898C40.5572 24.9577 40.5863 25.0251 40.6015 25.0961C40.6168 25.1671 40.6179 25.2404 40.6048 25.3119C40.5917 25.3833 40.5647 25.4515 40.5253 25.5125L40.47 25.5988C40.4196 25.6764 40.3506 25.7402 40.2693 25.7842C40.1879 25.8283 40.0968 25.8512 40.0043 25.851Z" fill="#3F456B"/>
<path d="M10.7997 14.3339C10.136 14.3339 9.48718 14.1371 8.93534 13.7684C8.3835 13.3996 7.95339 12.8756 7.69941 12.2624C7.44542 11.6492 7.37897 10.9745 7.50845 10.3236C7.63793 9.67262 7.95753 9.07469 8.42683 8.60539C8.89613 8.13609 9.49406 7.81649 10.145 7.68701C10.7959 7.55753 11.4707 7.62398 12.0838 7.87797C12.697 8.13195 13.2211 8.56206 13.5898 9.1139C13.9585 9.66574 14.1553 10.3145 14.1553 10.9782C14.1545 11.8679 13.8006 12.721 13.1715 13.3501C12.5424 13.9792 11.6894 14.333 10.7997 14.3339ZM10.7997 8.72856C10.3547 8.72856 9.91977 8.8605 9.54981 9.10769C9.17986 9.35489 8.89152 9.70624 8.72124 10.1173C8.55097 10.5284 8.50642 10.9807 8.59323 11.4171C8.68003 11.8535 8.89429 12.2543 9.20891 12.569C9.52353 12.8836 9.92438 13.0978 10.3608 13.1847C10.7972 13.2715 11.2495 13.2269 11.6606 13.0566C12.0716 12.8864 12.423 12.598 12.6702 12.2281C12.9174 11.8581 13.0493 11.4232 13.0493 10.9782C13.0484 10.3818 12.8111 9.81014 12.3894 9.38844C11.9677 8.96673 11.396 8.72944 10.7997 8.72856Z" fill="#3F456B"/>
<path d="M57.0316 52.8779C56.5545 52.8779 56.0882 52.7364 55.6915 52.4713C55.2948 52.2063 54.9856 51.8295 54.803 51.3887C54.6204 50.948 54.5727 50.4629 54.6657 49.995C54.7588 49.5271 54.9886 49.0973 55.3259 48.7599C55.6633 48.4225 56.0931 48.1928 56.561 48.0997C57.029 48.0066 57.514 48.0544 57.9548 48.237C58.3955 48.4196 58.7723 48.7288 59.0373 49.1254C59.3024 49.5221 59.4439 49.9885 59.4439 50.4656C59.4433 51.1052 59.189 51.7184 58.7367 52.1707C58.2844 52.6229 57.6712 52.8773 57.0316 52.8779ZM57.0316 49.1594C56.7733 49.1594 56.5207 49.236 56.3059 49.3795C56.0911 49.5231 55.9237 49.7271 55.8248 49.9658C55.726 50.2044 55.7001 50.4671 55.7505 50.7205C55.8009 50.9738 55.9253 51.2066 56.108 51.3893C56.2907 51.5719 56.5234 51.6963 56.7768 51.7467C57.0302 51.7971 57.2928 51.7713 57.5315 51.6724C57.7702 51.5735 57.9742 51.4061 58.1177 51.1913C58.2612 50.9765 58.3379 50.724 58.3379 50.4656C58.3358 50.1203 58.1974 49.7898 57.9527 49.5462C57.708 49.3026 57.3769 49.1655 57.0316 49.1649V49.1594Z" fill="#3F456B"/>
</svg>
